HIERARCHY
ROOT Hips
{
  OFFSET 0 0.240689 0
  CHANNELS 6 Xposition Yposition Zposition Zrotation Xrotation Yrotation
  JOINT Bip01_Spine0
  {
    OFFSET 0 -24.7459 49.7988
    CHANNELS 6 Xposition Yposition Zposition Zrotation Xrotation Yrotation
    JOINT Bip01_Pelvis
    {
      OFFSET 0 0 0
      CHANNELS 6 Xposition Yposition Zposition Zrotation Xrotation Yrotation
      JOINT Bip01_Spine0_Tail
      {
        OFFSET -6.47486 -3.86022 0
        CHANNELS 6 Xposition Yposition Zposition Zrotation Xrotation Yrotation
        JOINT Bip01_Spine0_Tail1
        {
          OFFSET 10.3837 -0.00825882 0
          CHANNELS 6 Xposition Yposition Zposition Zrotation Xrotation Yrotation
          JOINT Bip01_Spine0_Tail2
          {
            OFFSET 10.3837 -0.00826263 0
            CHANNELS 6 Xposition Yposition Zposition Zrotation Xrotation Yrotation
            JOINT Bip01_Spine0_Tail3
            {
              OFFSET 10.3837 -0.00825882 0
              CHANNELS 6 Xposition Yposition Zposition Zrotation Xrotation Yrotation
              JOINT Bip01_Spine0_Tail4
              {
                OFFSET 10.3837 -0.00826263 0
                CHANNELS 6 Xposition Yposition Zposition Zrotation Xrotation Yrotation
                End Site
                {
                  OFFSET 0 0 0
                }
              }
            }
          }
        }
      }
      JOINT Bip01_R_Thigh
      {
        OFFSET 0 -1.52588e-005 -8.75617
        CHANNELS 6 Xposition Yposition Zposition Zrotation Xrotation Yrotation
        JOINT Bip01_R_Calf
        {
          OFFSET 19.7638 0 0
          CHANNELS 6 Xposition Yposition Zposition Zrotation Xrotation Yrotation
          JOINT Bip01_R_Foot
          {
            OFFSET 18.6534 0 0
            CHANNELS 6 Xposition Yposition Zposition Zrotation Xrotation Yrotation
            JOINT Bip01_R_Toe0
            {
              OFFSET 5.09145 13.9567 0
              CHANNELS 6 Xposition Yposition Zposition Zrotation Xrotation Yrotation
              JOINT Bip01_R_Toe01
              {
                OFFSET 4.28803 0 0
                CHANNELS 6 Xposition Yposition Zposition Zrotation Xrotation Yrotation
                JOINT Bip01_R_Toe02
                {
                  OFFSET 3.85801 0 0
                  CHANNELS 6 Xposition Yposition Zposition Zrotation Xrotation Yrotation
                  End Site
                  {
                    OFFSET 0 0 0
                  }
                }
              }
            }
          }
        }
      }
      JOINT Bip01_L_Thigh
      {
        OFFSET 0 1.52588e-005 8.75617
        CHANNELS 6 Xposition Yposition Zposition Zrotation Xrotation Yrotation
        JOINT Bip01_L_Calf
        {
          OFFSET 19.7638 0 0
          CHANNELS 6 Xposition Yposition Zposition Zrotation Xrotation Yrotation
          JOINT Bip01_L_Foot
          {
            OFFSET 18.6534 0 0
            CHANNELS 6 Xposition Yposition Zposition Zrotation Xrotation Yrotation
            JOINT Bip01_L_Toe0
            {
              OFFSET 5.09144 13.9567 0
              CHANNELS 6 Xposition Yposition Zposition Zrotation Xrotation Yrotation
              JOINT Bip01_L_Toe01
              {
                OFFSET 4.28802 0 0
                CHANNELS 6 Xposition Yposition Zposition Zrotation Xrotation Yrotation
                JOINT Bip01_L_Toe02
                {
                  OFFSET 3.85801 0 0
                  CHANNELS 6 Xposition Yposition Zposition Zrotation Xrotation Yrotation
                  End Site
                  {
                    OFFSET 0 0 0
                  }
                }
              }
            }
          }
        }
      }
      JOINT Bip01_Spine
      {
        OFFSET 9.14835 -0.00640869 -1.1e-005
        CHANNELS 6 Xposition Yposition Zposition Zrotation Xrotation Yrotation
        JOINT Bip01_Spine1
        {
          OFFSET 8.04366 -0.00638199 0
          CHANNELS 6 Xposition Yposition Zposition Zrotation Xrotation Yrotation
          JOINT Bip01_Spine2
          {
            OFFSET 8.04367 -0.00639343 0
            CHANNELS 6 Xposition Yposition Zposition Zrotation Xrotation Yrotation
            JOINT Bip01_Spine3
            {
              OFFSET 8.04304 -0.00831222 0
              CHANNELS 6 Xposition Yposition Zposition Zrotation Xrotation Yrotation
              JOINT Bip01_Neck
              {
                OFFSET 10.6685 1.06813 0
                CHANNELS 6 Xposition Yposition Zposition Zrotation Xrotation Yrotation
                JOINT Bip01_R_Clavicle
                {
                  OFFSET -3.21661 -4.89635 -9.04802
                  CHANNELS 6 Xposition Yposition Zposition Zrotation Xrotation Yrotation
                  JOINT Bip01_R_UpperArm
                  {
                    OFFSET 19.0492 0 0
                    CHANNELS 6 Xposition Yposition Zposition Zrotation Xrotation Yrotation
                    JOINT Bip01_R_Forearm
                    {
                      OFFSET 10.3706 0 0
                      CHANNELS 6 Xposition Yposition Zposition Zrotation Xrotation Yrotation
                      JOINT Bip01_R_Hand
                      {
                        OFFSET 22.8632 0 0
                        CHANNELS 6 Xposition Yposition Zposition Zrotation Xrotation Yrotation
                        JOINT Bip01_R_Finger0
                        {
                          OFFSET 6.48259 0.103651 0.504496
                          CHANNELS 6 Xposition Yposition Zposition Zrotation Xrotation Yrotation
                          JOINT Bip01_R_Finger01
                          {
                            OFFSET 3.66847 0 0
                            CHANNELS 6 Xposition Yposition Zposition Zrotation Xrotation Yrotation
                            End Site
                            {
                              OFFSET 0 0 0
                            }
                          }
                        }
                      }
                    }
                  }
                }
                JOINT Bip01_L_Clavicle
                {
                  OFFSET -3.21661 -4.89641 9.04797
                  CHANNELS 6 Xposition Yposition Zposition Zrotation Xrotation Yrotation
                  JOINT Bip01_L_UpperArm
                  {
                    OFFSET 19.0492 0 0
                    CHANNELS 6 Xposition Yposition Zposition Zrotation Xrotation Yrotation
                    JOINT Bip01_L_Forearm
                    {
                      OFFSET 10.3706 0 0
                      CHANNELS 6 Xposition Yposition Zposition Zrotation Xrotation Yrotation
                      JOINT Bip01_L_Hand
                      {
                        OFFSET 22.8631 0 0
                        CHANNELS 6 Xposition Yposition Zposition Zrotation Xrotation Yrotation
                        JOINT Bip01_L_Finger0
                        {
                          OFFSET 6.48257 0.103655 -0.504492
                          CHANNELS 6 Xposition Yposition Zposition Zrotation Xrotation Yrotation
                          JOINT Bip01_L_Finger01
                          {
                            OFFSET 3.66844 0 0
                            CHANNELS 6 Xposition Yposition Zposition Zrotation Xrotation Yrotation
                            End Site
                            {
                              OFFSET 0 0 0
                            }
                          }
                        }
                      }
                    }
                  }
                }
                JOINT Bip01_Neck1
                {
                  OFFSET 7.52459 -0.00656509 0
                  CHANNELS 6 Xposition Yposition Zposition Zrotation Xrotation Yrotation
                  JOINT Bip01_Neck2
                  {
                    OFFSET 8.4783 -0.00588226 0
                    CHANNELS 6 Xposition Yposition Zposition Zrotation Xrotation Yrotation
                    JOINT Bip01_Head
                    {
                      OFFSET 8.41606 0 0
                      CHANNELS 6 Xposition Yposition Zposition Zrotation Xrotation Yrotation
                      JOINT EyesBlue
                      {
                        OFFSET 0 0 0
                        CHANNELS 6 Xposition Yposition Zposition Zrotation Xrotation Yrotation
                        JOINT EyesBlue_2
                        {
                          OFFSET 0 -0.500007 0
                          CHANNELS 6 Xposition Yposition Zposition Zrotation Xrotation Yrotation
                          End Site
                          {
                            OFFSET 0 0 0
                          }
                        }
                      }
                      JOINT Bip01_Head2_Eyeleds
                      {
                        OFFSET 6.52751 7.61746 2.2e-005
                        CHANNELS 6 Xposition Yposition Zposition Zrotation Xrotation Yrotation
                        End Site
                        {
                          OFFSET 0 0 0
                        }
                      }
                      JOINT Bip01_Head_Muzzle
                      {
                        OFFSET 2.88628 13.9448 3.88994
                        CHANNELS 6 Xposition Yposition Zposition Zrotation Xrotation Yrotation
                        End Site
                        {
                          OFFSET 0 0 0
                        }
                      }
                      JOINT Bip01_Head1_Jaw
                      {
                        OFFSET 0.271065 1.32405 0
                        CHANNELS 6 Xposition Yposition Zposition Zrotation Xrotation Yrotation
                        JOINT _Bip01_Head11_TungeControler
                        {
                          OFFSET 4.61616 5.82872 0
                          CHANNELS 6 Xposition Yposition Zposition Zrotation Xrotation Yrotation
                          JOINT _Bip01_Ponytail3_tunge
                          {
                            OFFSET 5.17785 2.98805 0
                            CHANNELS 6 Xposition Yposition Zposition Zrotation Xrotation Yrotation
                            JOINT Bip01_Ponytail31
                            {
                              OFFSET 5.57569 0 0
                              CHANNELS 6 Xposition Yposition Zposition Zrotation Xrotation Yrotation
                              JOINT Bip01_Ponytail32
                              {
                                OFFSET 2.93165 0 0
                                CHANNELS 6 Xposition Yposition Zposition Zrotation Xrotation Yrotation
                                JOINT Bip01_Ponytail3Nub
                                {
                                  OFFSET 3.30155 0 0
                                  CHANNELS 6 Xposition Yposition Zposition Zrotation Xrotation Yrotation
                                  End Site
                                  {
                                    OFFSET 0 0 0
                                  }
                                }
                              }
                            }
                          }
                        }
                        JOINT Bip01_Head_JawNub
                        {
                          OFFSET 15.5776 -0.000389099 0
                          CHANNELS 6 Xposition Yposition Zposition Zrotation Xrotation Yrotation
                          End Site
                          {
                            OFFSET 0 0 0
                          }
                        }
                      }
                      JOINT Bip01_Ponytail2
                      {
                        OFFSET 9.40334 1.03973 -6.51764
                        CHANNELS 6 Xposition Yposition Zposition Zrotation Xrotation Yrotation
                        JOINT Bip01_Ponytail21
                        {
                          OFFSET 2.77018 -0.00640106 1.33514e-005
                          CHANNELS 6 Xposition Yposition Zposition Zrotation Xrotation Yrotation
                          End Site
                          {
                            OFFSET 0 0 0
                          }
                        }
                      }
                      JOINT Bip01_Ponytail1
                      {
                        OFFSET 9.40368 1.03969 6.51768
                        CHANNELS 6 Xposition Yposition Zposition Zrotation Xrotation Yrotation
                        JOINT Bip01_Ponytail11
                        {
                          OFFSET 2.77018 -0.00640487 0
                          CHANNELS 6 Xposition Yposition Zposition Zrotation Xrotation Yrotation
                          End Site
                          {
                            OFFSET 0 0 0
                          }
                        }
                      }
                    }
                  }
                }
              }
            }
          }
        }
      }
    }
  }
}
MOTION
Frames:	4
Frame Time:	0.0333333
10.8753 0 12.765 -0 -90 -0 0.00013 -28.702 44.6117 90 2.61166e-005 100.963 0 0 0 -90 -3.50835e-015 -90 -6.47532 -3.85984 -8.4e-005 142.959 0.00118425 -0.000588055 10.3808 -0.007858 6.3e-005 -17.1642 0.001624 0.002202 10.3822 -0.008049 3.6e-005 -6.80002 0.00475039 4.20296 10.3856 -0.007804 0.000128 16.8202 0.00370659 4.20265 10.381 -0.00793 2.97171e-010 -16 -4.68593e-006 0.000102408 1.1e-005 -1.5e-005 -8.75617 -111.853 -3.66446 159.997 19.7638 -3e-006 7.10543e-015 -73.1423 0.000316058 0.002119 18.6534 -1e-006 4.26326e-014 -1.26632 -2.22901 1.5717 5.09143 13.9567 -4.18178e-007 115.644 10.3597 7.90975 4.288 -3e-006 3e-006 42 3.08743e-005 1.20485e-005 3.85799 -1e-006 7.67386e-013 -23.5 0.000637633 0.00100351 -1.1e-005 1.1e-005 8.75617 -143.818 -1.93512 -162.859 19.7638 -3.55271e-015 3.55271e-015 -75.9926 0.000183225 0.00149 18.6534 7e-006 -3.19744e-014 -1.5964 0.716063 3.4344 5.09143 13.9567 -4.17562e-008 86.6428 -10.3579 -7.90924 4.288 5.32907e-015 -1e-006 42.0013 1.99205e-005 -6.11003e-007 3.85799 -2.66454e-015 5.32907e-015 -45.0006 0.000483811 0.00118962 9.14769 -0.00632 8.8e-005 -4.95326 0.000861 0.000939 8.04402 -0.006393 3.55271e-015 4.49999 8.62947e-006 -1.80355e-005 8.04441 -0.006282 -1.6e-005 7.97429 0.000947 0.000823 8.04256 -0.008274 1.77636e-015 -8.31156 6.74497e-006 2.31315e-005 10.6677 1.0684 0.000163 -20.1616 0.001433 0.002053 -2.60601 -5.2465 -9.0479 -159.888 -74.416 129.496 19.0492 1e-006 1.77636e-015 96.019 6.62242 -106.631 10.3706 1e-006 1e-006 -108.017 0.000450746 -0.00288069 22.8631 -2e-006 3e-006 -10.4047 17.1127 10.3868 6.48255 0.103653 0.504496 -28.8485 -12.0843 -9.77448 3.66843 1e-006 3e-006 40.107 6.92757e-006 1.80175e-006 -2.60595 -5.24649 9.04777 -159.882 74.4173 -129.5 19.0492 1.24345e-014 -1.06581e-014 98.2209 -7.40443 106.542 10.3706 -2.30926e-014 -9.76996e-015 -106.773 -0.000624602 0.00408803 22.8631 -1.24345e-014 -4.44089e-015 -9.7967 -18.292 -8.81715 6.48256 0.10365 -0.504496 -28.8493 12.0863 9.7788 3.66843 9.43689e-015 7.10543e-015 40.107 2.82595e-005 -3.7011e-005 7.52861 -0.006183 2.7e-005 21.5011 0.000852 0.00058 8.47659 -0.006446 2.8e-005 14.0016 0.001764 0.001378 8.41605 0 -1.77636e-015 -110.997 -0.000225895 0.00117059 -3e-006 3e-006 -3e-006 -23.1098 1.37701e-015 90 -1.46682e-007 -0.500004 3.55271e-015 180 90 -90 0 0 0 -99.049 7.01671e-015 -180 6.5155 13.6585 3.88994 -22.989 1.37021e-015 90 0 0 0 -85.3358 -7.01671e-015 -180 0 0 0 -120.289 7.66642e-008 -1.99937e-005 0 0 0 133.74 -1.94136e-005 4.73986e-006 0 0 0 1.83152 9.73696e-011 -1.039e-011 0 0 0 -17.65 3.3843e-010 6.91408e-011 0 0 0 -26.1943 -6.90473e-011 -5.34355e-011 15.5776 -0.000396 -7e-006 1.59028e-015 -2.32951e-018 1.55301e-018 9.40535 1.041 -6.51521 61.9256 -46.8176 116.932 2.76632 -0.004709 -0.002376 -36.877 21.9525 34.7264 9.4057 1.04106 6.51531 61.9266 46.8162 -116.932 2.76632 -0.004709 0.002403 -36.8753 -21.9538 -34.7238 
10.331 0 12.1261 -0 -90 -0 -0.00700911 -28.5847 44.7712 90.0003 0.00035501 100.641 0 0 0 -89.9997 -2.69962e-005 -89.545 -6.47497 -3.85984 -0.0513739 142.675 -0.274317 0.360735 10.3808 -0.007858 6.3e-005 -17.5345 0.00160973 0.00221245 10.3822 -0.008049 3.6e-005 -6.80002 0.00475039 4.20296 10.3856 -0.007804 0.000128 16.8202 0.00370647 4.20265 10.381 -0.00793 2.80099e-010 -16 -4.5686e-006 0.000102442 1.1e-005 -1.5e-005 -8.75617 -111.131 -2.54539 161.88 19.7638 -3e-006 7.10543e-015 -77.3917 0.00023415 0.00211942 18.6534 -1e-006 2.84217e-014 7.62342 -1.95762 2.53633 5.09143 13.9567 -2.75954e-007 113.817 9.78908 7.5482 4.288 -3e-006 3e-006 39.9041 2.91364e-005 1.1539e-005 3.85799 -1e-006 7.53176e-013 -23.5 0.000637677 0.00100403 -1.1e-005 1.1e-005 8.75617 -141.616 -1.28393 -163.182 19.7638 -1.42109e-014 7.10543e-015 -75.9537 0.000184243 0.00148988 18.6534 7e-006 -1.95399e-014 0.479971 0.651802 3.00006 5.09143 13.9567 -4.73245e-008 86.458 -9.98062 -7.20438 4.288 7.10543e-015 -1e-006 42.1817 1.90732e-005 -4.97773e-007 3.85799 -7.54952e-015 -1.77636e-015 -45.0006 0.00048448 0.00119013 9.14741 -0.00632 0.072558 -4.82166 0.0390954 -0.452293 8.04402 -0.006393 1.77636e-015 4.39306 8.66311e-006 -1.80194e-005 8.04441 -0.006282 -1.6e-005 7.85541 0.058785 -0.00102988 8.04256 -0.008274 0 -8.22839 6.77809e-006 2.31248e-005 10.6677 1.0684 0.000163 -20.4619 0.00142222 0.00206048 -2.57855 -5.26009 -9.0479 -159.582 -75.243 128.99 19.0492 1e-006 3.55271e-015 95.5378 3.64372 -103.844 10.3706 1e-006 1e-006 -109.869 0.000501727 -0.00287991 22.8631 -2e-006 3e-006 -6.58845 17.7497 10.0715 6.48255 0.103653 0.504496 -29.2632 -12.0134 -9.86248 3.66843 1e-006 3e-006 40.107 1.01235e-005 4.88797e-007 -2.57839 -5.26002 9.04777 -159.581 74.9955 -128.739 19.0492 -7.10543e-015 2.4869e-014 96.7137 -2.83092 105.895 10.3706 2.66453e-014 8.88179e-015 -109.565 -0.000718238 0.00408915 22.8631 -8.88178e-015 -7.99361e-015 -10.1119 -18.635 -8.44466 6.48256 0.10365 -0.504496 -31.1245 11.6932 10.2476 3.66843 -1.11022e-014 -2.66454e-015 40.107 2.86526e-005 -3.77985e-005 7.52861 -0.006183 2.7e-005 19.3424 0.000829549 0.000611681 8.47659 -0.006446 2.8e-005 12.865 0.00173632 0.00141272 8.41605 0 0 -107.146 0.012062 -0.0544302 -3e-006 3e-006 -3e-006 -23.1098 1.37701e-015 90 -1.46751e-007 -0.500004 6.03961e-014 180 90 -90 0 0 0 -99.7747 7.01671e-015 -180 6.33386 13.6728 3.88994 -22.989 1.37021e-015 90 0 0 0 -85.3358 -7.01671e-015 -180 0 0 0 -120.289 5.89744e-008 -1.99722e-005 0 0 0 133.74 -1.9365e-005 4.73617e-006 0 0 0 1.83152 -1.52751e-008 1.65386e-009 0 0 0 -17.65 -5.44558e-008 -1.10501e-008 0 0 0 -26.1943 1.12806e-008 8.70764e-009 15.5776 -0.000396 -7e-006 3.18055e-015 0 1.55301e-018 9.40535 1.041 -6.51521 57.6765 -47.5052 112.335 2.76632 -0.004709 -0.002376 -35.4959 21.6865 33.4663 9.4057 1.04106 6.51531 57.6765 47.5046 -112.334 2.76632 -0.004709 0.002403 -35.4956 -21.6849 -33.4636 
9.78668 0 11.4872 -0 -90 -0 -0.0161384 -28.4455 44.9618 90 2.71647e-005 100.255 0 0 0 -90.0003 -4.16207e-005 -88.8259 -6.4737 -3.85984 -0.132738 142.335 -0.716431 0.928998 10.3808 -0.007858 6.3e-005 -17.977 0.0015926 0.00222482 10.3822 -0.008049 3.6e-005 -6.80002 0.00475039 4.20296 10.3856 -0.007804 0.000128 16.8202 0.00370633 4.20265 10.381 -0.00793 2.61098e-010 -16 -4.43922e-006 0.00010248 1.1e-005 -1.5e-005 -8.75617 -110.168 -0.973114 163.861 19.7638 -3e-006 7.10543e-015 -82.1701 0.000144621 0.00211928 18.6534 -1e-006 2.84217e-014 18.1485 -1.6044 3.51656 5.09143 13.9567 -1.29852e-007 108.874 8.30669 6.48388 4.288 -3e-006 3e-006 34.2392 6.49237e-005 9.95014e-006 3.85799 -1e-006 1.37135e-012 -23.5 0.000599641 0.000989436 -1.1e-005 1.1e-005 8.75617 -139.604 -0.542347 -163.348 19.7638 0 0 -76.1504 0.000179129 0.0014905 18.6534 7e-006 -2.84217e-014 1.79246 0.625673 2.52598 5.09143 13.9567 -4.80998e-008 86.9256 -9.54806 -6.42101 4.288 1.06581e-014 -1e-006 42.6723 1.77776e-005 -3.97432e-007 3.85799 -8.88178e-016 0 -45.0006 0.000485468 0.00119096 9.14562 -0.00632 0.187521 -4.60742 0.0952205 -1.16971 8.04402 -0.006393 1.77636e-015 4.21766 8.71824e-006 -1.79928e-005 8.04441 -0.006282 -1.6e-005 7.663 0.183855 -0.00425722 8.04256 -0.008274 1.77636e-015 -8.09197 6.83515e-006 2.30944e-005 10.6677 1.0684 0.000163 -21.0425 0.00140127 0.00207479 -2.52506 -5.28586 -9.0479 -158.997 -76.1201 128.497 19.0492 1e-006 3.55271e-015 95.3097 0.0900883 -100.739 10.3706 1e-006 1e-006 -112.291 0.000567368 -0.00287925 22.8631 -2e-006 3e-006 -2.17076 18.5687 9.69387 6.48255 0.103653 0.504496 -29.4263 -11.9858 -9.89604 3.66843 1e-006 3e-006 40.107 1.13173e-005 8.18272e-007 -2.52489 -5.28572 9.04777 -159 75.5898 -127.957 19.0492 1.77636e-015 -3.55271e-015 95.2235 1.66195 105.419 10.3706 1.77636e-015 4.44089e-015 -111.754 -0.000795679 0.00408803 22.8631 -3.55271e-015 6.21725e-015 -10.8376 -18.9092 -8.08649 6.48256 0.10365 -0.504496 -33.4566 11.2704 10.7119 3.66843 -9.992e-016 2.66454e-015 40.107 2.90194e-005 -3.85667e-005 7.52861 -0.006183 2.7e-005 15.6704 0.00078867 0.000663553 8.47659 -0.006446 2.8e-005 10.8874 0.00168653 0.0014718 8.41605 0 0 -100.56 0.0371318 -0.177472 -3e-006 3e-006 -3e-006 -23.1098 1.37701e-015 90 -1.46899e-007 -0.500004 5.47118e-013 180 90 -90 0 0 0 -100.5 7.01671e-015 -180 6.15222 13.6872 3.88994 -22.989 1.37021e-015 90 0 0 0 -85.3358 -7.01671e-015 -180 0 0 0 -120.289 2.20543e-008 -1.99271e-005 0 0 0 133.74 -1.9266e-005 4.72851e-006 0 0 0 1.83152 -4.63001e-008 5.05247e-009 0 0 0 -17.65 -1.67632e-007 -3.38685e-008 0 0 0 -26.1943 3.5051e-008 2.70091e-008 15.5776 -0.000396 -7e-006 -0 -1.55301e-018 -0 9.40535 1.041 -6.51521 52.4386 -48.0194 106.683 2.76632 -0.004709 -0.002376 -33.8557 21.3295 31.9703 9.4057 1.04106 6.51531 52.439 48.0178 -106.684 2.76632 -0.004709 0.002403 -33.8557 -21.3284 -31.9675 
9.24237 0 10.8483 -0 -90 -0 -0.0268075 -28.2924 45.1727 90 2.60471e-005 99.8286 0 0 0 -90 -4.10731e-005 -87.9305 -6.47068 -3.85984 -0.233897 141.968 -1.2745 1.6298 10.3808 -0.007858 6.3e-005 -18.4658 0.00157356 0.00223832 10.3822 -0.008049 3.6e-005 -6.80002 0.00475039 4.20296 10.3856 -0.007804 0.000128 16.8202 0.00370619 4.20265 10.381 -0.00793 2.41776e-010 -16 -4.30903e-006 0.000102518 1.1e-005 -1.5e-005 -8.75617 -109.317 0.741632 165.819 19.7638 -3e-006 0 -86.7342 6.03181e-005 0.00211906 18.6534 -1e-006 2.13163e-014 28.1214 -1.168 4.22187 5.09143 13.9567 -1.68268e-008 102.346 6.49852 4.90241 4.288 -3e-006 3e-006 26.7768 7.36784e-006 7.78343e-006 3.85799 -1e-006 4.0501e-013 -23.5 0.000649013 0.00101207 -1.1e-005 1.1e-005 8.75617 -137.796 0.271867 -163.399 19.7638 7.10543e-015 3.55271e-015 -76.4628 0.000170997 0.00149145 18.6534 7e-006 -3.19744e-014 2.44267 0.630467 2.0451 5.09143 13.9567 -4.62154e-008 87.844 -9.09235 -5.63127 4.288 2.66454e-014 -1e-006 43.4433 1.61401e-005 -3.10992e-007 3.85799 1.11022e-014 1.77636e-015 -45.0006 0.000486703 0.00119205 9.14151 -0.00632 0.330455 -4.33763 0.157486 -2.06294 8.04402 -0.006393 1.77636e-015 3.99748 8.78731e-006 -1.79591e-005 8.04441 -0.006282 -1.6e-005 7.42222 0.328227 -0.00726067 8.04256 -0.008274 1.77636e-015 -7.92071 7.0371e-006 2.21182e-005 10.6677 1.0684 0.000163 -21.7319 0.0013762 0.0020915 -2.46117 -5.31581 -9.0479 -158.306 -76.991 128.033 19.0492 1e-006 0 95.3846 -3.57615 -97.5898 10.3706 1e-006 1e-006 -114.964 0.000642185 -0.00287763 22.8631 -2e-006 3e-006 2.44598 19.4492 9.25099 6.48255 0.103653 0.504496 -29.4236 -11.9861 -9.89581 3.66843 1e-006 3e-006 40.107 1.02969e-005 2.81233e-006 -2.46105 -5.31566 9.04777 -158.309 76.1673 -127.197 19.0492 0 0 93.8856 5.72145 105.057 10.3706 3.55271e-015 3.55271e-015 -113.17 -0.00084386 0.00408651 22.8631 -7.10542e-015 7.10543e-015 -11.8702 -19.1274 -7.75066 6.48256 0.10365 -0.504496 -35.7138 10.8426 11.1448 3.66843 1.68754e-014 0 40.107 2.93647e-005 -3.92931e-005 7.52861 -0.006183 2.7e-005 11.1296 0.000733662 0.000723909 8.47659 -0.006446 2.8e-005 8.4603 0.00162269 0.0015419 8.41605 1.42109e-014 1.77636e-015 -92.4308 0.0633285 -0.319017 -3e-006 3e-006 -3e-006 -23.1098 1.37701e-015 90 -1.47065e-007 -0.500004 1.67333e-012 180 90 -90 0 0 0 -101.226 7.01671e-015 -180 5.97057 13.7015 3.88994 -22.989 1.37021e-015 90 0 0 0 -85.3358 -7.01671e-015 -180 0 0 0 -120.289 -1.7549e-008 -1.98789e-005 0 0 0 133.74 -1.91571e-005 4.72025e-006 0 0 0 1.83152 -8.08229e-008 8.78603e-009 0 0 0 -17.65 -2.90426e-007 -5.88024e-008 0 0 0 -26.1943 6.04509e-008 4.66211e-008 15.5776 -0.000396 -7e-006 1.59028e-015 1.94126e-018 2.32951e-018 9.40535 1.041 -6.51521 46.5634 -48.1753 100.354 2.76632 -0.004709 -0.002376 -32.0633 20.8897 30.3372 9.4057 1.04106 6.51531 46.5638 48.1745 -100.356 2.76632 -0.004709 0.002403 -32.0626 -20.889 -30.3341 
